# xmcd CD database file
#
# Track frame offsets:
#	150
#	17450
#	35818
#	59787
#	75892
#	94355
#	103339
#	130442
#	138523
#	158166
#	163164
#	174808
#	177196
#
# Disc length: 2615 seconds
#
# Revision: 0
# Processed by: cddbd v1.5.2PL0 Copyright (c) Steve Scherf et al.
# Submitted via: CDex 1.51
#
DISCID=ad0a350d
DTITLE=Gerhard Gschlößl - Transzendenz
DYEAR=2008
DGENRE=Jazz
TTITLE0=Transzendenz
TTITLE1=Dem deutschen Jazz
TTITLE2=Sorento
TTITLE3=18 Grad Minus
TTITLE4=Virus
TTITLE5=Sarabande
TTITLE6=Ein dunkles Helles
TTITLE7=We Are ...
TTITLE8=Relaxin' At Gerardo's
TTITLE9=Transzendenz-Reprise
TTITLE10=Pause
TTITLE11=Harte Jungs in C
TTITLE12=November wird es jedes Jahr
EXTD=YEAR: 2008
EXTT0=
EXTT1=
EXTT2=
EXTT3=
EXTT4=
EXTT5=
EXTT6=
EXTT7=
EXTT8=
EXTT9=
EXTT10=
EXTT11=
EXTT12=
PLAYORDER=
